{"title":"Hotel.Transylvania.2.2015.NEW.HDCAM.XVID.AC3.HQ.Hive-CM8","uid":12510096,"size":1392005756,"categoryP":"video","categoryS":"movies","magnet":"?xt=urn:btih:f3749802732f2b9ae2603643471300d5587f6d76&amp;dn=Hotel.Transylvania.2.2015.NEW.HDCAM.XVID.AC3.HQ.Hive-CM8&amp;tr=udp%3A%2F%2Ftracker.leechers-paradise.org%3A6969&amp;tr=udp%3A%2F%2Fzer0day.ch%3A1337&amp;tr=udp%3A%2F%2Fopen.demonii.com%3A1337&amp;tr=udp%3A%2F%2Ftracker.coppersurfer.tk%3A6969&amp;tr=udp%3A%2F%2Fexodus.desync.com%3A6969","seeders":0,"leechers":0,"uploader":"TvTeam","files":4,"time":1443525180,"description":"------------------------------------------------------------------------\r\n\r  https://www.torrenting.com\r\n\r\nSign up is OPEN - for time being. Come and have fun.\r\n\r\n------------------------------------------------------------------------[center][img]http://i.imgur.com/MTviF6p.jpg[/img]\r\n\r\n \r\n[color=blue][size=4][b]Hotel.Transylvania.2.2015.NEW.HDCAM.XVID.AC3.HQ.Hive-CM8[/b][/size][/color]\r\n\r\nThx Hive\r\n\r\nCM8 Doing It Right The First Time \r\n\r\nSources:\r\n\r\nVideo: 720p Latino HDCAM\r\nAudio: English Mic from unknown release\r\nthx\r\n\r\nNotes:\r\n\r\nhad that great HDCam since yesterday but was stuck without audio.\r\nthis one has full resolution nothing cropped and its complete.\r\nunknown version had 720x244 this one has 720x352 so you can see it all now\r\n\r\nEncode:\r\n\r\nVideo was very nice to begin with, fixed brightness contrast relation and added some sharpness.\r\nMic was also very nice, cleaned it through and lipsynced it to my video.\r\n\r\ngot very nice\r\nwill do me till retail\r\nenjoy\r\n\r\nVideo: 720x352 @bitrate 2000 2pass\r\nAudio: English AC3 2.0 Stereo MIC\r\nSample: Yes included\r\n\r\n\r\n \nhttp://www.imdb.com/title/tt2510894/\r\n\r\n\r\n\r\nComplete name                  : Hotel.Transylvania.2.2015.NEW.HDCAM.XVID.AC3.HQ.Hive-CM8.avi\r\nFormat                         : AVI\t\r\nFormat/Info                    : Audio Video Interleave\r\nFile size                      : 1.27 GiB\r\nDuration                       : 1h 20mn\r\nOverall bit rate               : 2 267 Kbps\r\nWriting application            : Nandub v1.0rc2\r\nWriting library                : Nandub build 1853/release\r\n\r\nVideo\r\nID                             : 0\r\nFormat                         : MPEG-4 Visual\r\nFormat profile                 : Advanced   \r\nFormat settings, BVOP          : 2\r\nFormat settings, QPel          : Yes\r\nFormat settings, GMC           : No warppoints\r\nFormat settings, Matrix        : Default (H.263)\r\nMuxing mode                    : Packed bitstream\r\nCodec ID                       : XVID\r\nCodec ID/Hint                  : XviD\r\nDuration                       : 1h 20mn\r\nBit rate                       : 2 000 Kbps\r\nWidth                          : 720 pixels\r\nHeight                         : 352 pixels\r\nDisplay aspect ratio           : 2.045\r\nFrame rate                     : 29.970 fps\r\nColor space                    : YUV\r\nChroma subsampling             : 4:2:0\r\nBit depth                      : 8 bits\r\nScan type                      : Progressive\r\nCompression mode               : Lossy\r\nBits/(Pixel*Frame)             : 0.263\r\nStream size                    : 1.12 GiB (88%)\r\nWriting library                : XviD 1.2.1 (UTC 2008-12-04)\r\n\r\nAudio\r\nID                             : 1\r\nFormat                         : AC-3\r\nFormat/Info                    : Audio Coding 3\r\nMode extension                 : CM (complete main)\r\nFormat settings, Endianness    : Big\r\nCodec ID                       : 2000\r\nDuration                       : 1h 20mn\r\nBit rate mode                  : Constant\r\nBit rate                       : 256 Kbps\r\nChannel(s)                     : 2 channels\r\nChannel positions              : Front: L R\r\nSampling rate                  : 48.0 KHz\r\nBit depth                      : 16 bits\r\nCompression mode               : Lossy\r\nDelay relative to video        : 40ms\r\nStream size                    : 147 MiB (11%)\r\nAlignment                      : Split accross interleaves\r\nInterleave, duration           : 33 ms (1.00 video frame)\r\nInterleave, preload duration   : 500 ms\r\n\r\n\r\n\r\nScreens \r\n\r\n[img]http://i.imgur.com/na1zCTl.png[/img]\r\n[img]http://i.imgur.com/E5c2MYs.png[/img]\r\n[img]http://i.imgur.com/MZe1JVZ.png[/img]\r\n[img]http://i.imgur.com/Ww41Evz.png[/img]\r\n[img]http://i.imgur.com/U4JUMVm.png[/img]\r\n[img]http://i.imgur.com/v0hOksY.png[/img]\r\n[img]http://i.imgur.com/ogL3zLo.png[/img]\r\n[img]http://i.imgur.com/Ygb8ZtW.png[/img]\r\n\r\n\r\nPlot\r\n\r\nDracula and his friends try to bring out the monster in his half human, \r\nhalf vampire grandson in order to keep Mavis from leaving the hotel.\r\n\r\nCast\r\n\r\nAdam Sandler \t... \tDracula (voice)\r\nAndy Samberg \t... \tJonathan (voice)\r\nSelena Gomez \t... \tMavis (voice)\r\nKevin James \t... \tFrankenstein (voice)\r\nSteve Buscemi \t... \tWayne (voice)\r\nDavid Spade \t... \tGriffin (voice) \r\nMel Brooks \t... \tVlad (voice) \r\n\r\n\r\n\r\n\r\nGreetz\r\n\r\nSugarB,iNCOMiNG,Izzy,MenaceIISociety,jiinx,SiMPLE,CherryBomb\r\nranbailey,ViSiON,UnKnOwN,YanKeeS,COPYxRIGHT,THC,VAiN,ACAB,DRs\r\nLKRG,Kingstoner,ACAB,SiMPLE,TiTAN,cadance,PLAYNOW\r\nUnevano,BigVik,Rapeseed,SAFC,goldadvance,KaN1vE,Pinnz,Wayne,HiGH\r\nSeeN,jtr,Limey,ICONiK,TED,smittyman,rkofan,mrtoke09 (ya whinging old man here ya go lol )\r\nMr Hive\r\n\r\na special thanks to the office , toddy and megs for letting ted be shit faced and not kick him out haha\r\n\r\n\r\nLOOKING FOR ANYTHING YOU WANT TO LOOK AND SOUND BETTER\r\n\r\nCOME FIND US WE DONT BITE \r\n  [/center]","torrent":{"xt":"urn:btih:f3749802732f2b9ae2603643471300d5587f6d76","amp;dn":"Hotel.Transylvania.2.2015.NEW.HDCAM.XVID.AC3.HQ.Hive-CM8","amp;tr":["udp%3A%2F%2Ftracker.leechers-paradise.org%3A6969","udp%3A%2F%2Fzer0day.ch%3A1337","udp%3A%2F%2Fopen.demonii.com%3A1337","udp%3A%2F%2Ftracker.coppersurfer.tk%3A6969","udp%3A%2F%2Fexodus.desync.com%3A6969"],"infoHash":"f3749802732f2b9ae2603643471300d5587f6d76","infoHashBuffer":{"type":"Buffer","data":[243,116,152,2,115,47,43,154,226,96,54,67,71,19,0,213,88,127,109,118]},"announce":[],"urlList":[]}}